<?xml version="1.0" encoding="utf-8"?>
<!-- Generator: Adobe Illustrator 21.0.0, SVG Export Plug-In . SVG Version: 6.00 Build 0)  -->
<svg version="1.1" id="Livello_1" xmlns="http://www.w3.org/2000/svg" xmlns:xlink="http://www.w3.org/1999/xlink" x="0px" y="0px"
	 viewBox="0 0 304 270" style="enable-background:new 0 0 304 270;" xml:space="preserve">
<style type="text/css">
	.st0{fill:#B1B4C5;}
	.st1{fill:url(#SVGID_1_);}
	.st2{fill:#E1E4ED;}
	.st3{fill:url(#SVGID_2_);}
	.st4{fill:url(#SVGID_3_);}
	.st5{fill:#8A90AC;}
	.st6{font-family:'Arial-BoldMT';}
	.st7{font-size:13px;}
</style>
<g>
	<ellipse class="st0" cx="53.2" cy="54.8" rx="53.2" ry="54.8"/>
	
		<linearGradient id="SVGID_1_" gradientUnits="userSpaceOnUse" x1="-690.9385" y1="978.9655" x2="-690.9385" y2="977.9655" gradientTransform="matrix(106.378 0 0 -104.77 73553.8438 102566.2188)">
		<stop  offset="0" style="stop-color:#FFFFFF;stop-opacity:9.700000e-02"/>
		<stop  offset="1" style="stop-color:#FFFFFF;stop-opacity:0"/>
	</linearGradient>
	<ellipse class="st1" cx="53.2" cy="52.4" rx="53.2" ry="52.4"/>
	<g transform="translate(12.357 12.421)">
		<ellipse class="st2" cx="40.8" cy="41" rx="40.8" ry="41"/>
		<path class="st2" d="M0,0"/>
	</g>
	<g transform="translate(196)">
		<ellipse class="st0" cx="53.7" cy="54.8" rx="53.7" ry="54.8"/>
		
			<linearGradient id="SVGID_2_" gradientUnits="userSpaceOnUse" x1="-886.9992" y1="978.9655" x2="-886.9992" y2="977.9655" gradientTransform="matrix(107.372 0 0 -104.77 95292.5703 102566.2188)">
			<stop  offset="0" style="stop-color:#FFFFFF;stop-opacity:9.700000e-02"/>
			<stop  offset="1" style="stop-color:#FFFFFF;stop-opacity:0"/>
		</linearGradient>
		<ellipse class="st3" cx="53.7" cy="52.4" rx="53.7" ry="52.4"/>
		<g transform="translate(12.473 12.421)">
			<ellipse class="st2" cx="41.2" cy="41" rx="41.2" ry="41"/>
			<path class="st2" d="M0,0"/>
		</g>
	</g>
	<g transform="translate(98 160)">
		<ellipse class="st0" cx="53.7" cy="54.8" rx="53.7" ry="54.8"/>
		
			<linearGradient id="SVGID_3_" gradientUnits="userSpaceOnUse" x1="-788.9992" y1="818.9655" x2="-788.9992" y2="817.9655" gradientTransform="matrix(107.372 0 0 -104.77 84770.1172 85803.0156)">
			<stop  offset="0" style="stop-color:#FFFFFF;stop-opacity:9.700000e-02"/>
			<stop  offset="1" style="stop-color:#FFFFFF;stop-opacity:0"/>
		</linearGradient>
		<ellipse class="st4" cx="53.7" cy="52.4" rx="53.7" ry="52.4"/>
		<g transform="translate(12.473 12.421)">
			<ellipse class="st2" cx="41.2" cy="41" rx="41.2" ry="41"/>
			<path class="st5" d="M57.2,35.1c-0.5-6-7.2-5.4-7.2-5.4c-2.8-5-7.3-1.4-7.3-1.4C39.3,23.5,35,28,35,28c-7.4-0.8-7.1,5.2-7.1,5.2
				c-0.2,1.9,1,7.8,1,7.8c-1.1-3.4-3.5-0.6-3.5-0.6c-2.9,4.5-0.7,7-0.7,7c3.9,4.6,12.4,10.2,12.4,10.2c3,1.7,1.8,3.3,1.8,3.3l18.4-3
				l0.4-3.5C60.5,46,57.2,35.1,57.2,35.1L57.2,35.1z"/>
		</g>
	</g>
	<text transform="matrix(1 0 0 1 131 31)" class="st0 st6 st7">BATTE</text>
	<text transform="matrix(1 0 0 1 40 147)" class="st0 st6 st7">BATTE</text>
	<text transform="matrix(1 0 0 1 235 147)" class="st0 st6 st7">BATTE</text>
	<g transform="matrix(-1 0 0 1 177 39)">
		<path class="st0" d="M2,10h46c1.1,0,2,0.9,2,2l0,0c0,1.1-0.9,2-2,2H2c-1.1,0-2-0.9-2-2l0,0C0,10.9,0.9,10,2,10z"/>
		<path class="st0" d="M0,0"/>
		<path class="st0" d="M0,0"/>
	</g>
	<g transform="scale(1 -1) rotate(-55 -82.574 -131.195)">
		<path class="st0" d="M2,10l46,0c1.1,0,2,0.9,2,2l0,0c0,1.1-0.9,2-2,2L2,14c-1.1,0-2-0.9-2-2l0,0C0,10.9,0.9,10,2,10z"/>
		<path class="st0" d="M0,0"/>
		<path class="st0" d="M0,0"/>
	</g>
	<g transform="rotate(-55 240.022 -103.651)">
		<path class="st0" d="M2,10l46,0c1.1,0,2,0.9,2,2l0,0c0,1.1-0.9,2-2,2L2,14c-1.1,0-2-0.9-2-2l0,0C0,10.9,0.9,10,2,10z"/>
		<path class="st0" d="M0,0"/>
		<path class="st0" d="M0,0"/>
	</g>
</g>
</svg>
